<svg xmlns="http://www.w3.org/2000/svg" width="523" height="168" viewBox="0 0 523 168">
  <defs>
    <style>
      .cls-1 {
        fill: #bc7d00;
        fill-opacity: 0.9;
      }

      .cls-1, .cls-2, .cls-3, .cls-4 {
        fill-rule: evenodd;
      }

      .cls-2, .cls-3, .cls-4 {
        fill: #fff;
      }

      .cls-3 {
        opacity: 0.7;
      }

      .cls-4 {
        opacity: 0.6;
      }
    </style>
  </defs>
  <path id="twitter" class="cls-1" d="M158.522,50.313L143.705,65.626v2.553a33.979,33.979,0,0,1-1.067,8.068c-0.345,21.066-6.838,49-33.506,71.051C56.676,190.668.476,152.4,0.476,152.4c44.45,0,44.45-15.314,44.45-15.314-9.878,0-29.633-20.417-29.633-20.417,4.939,5.1,14.817,0,14.817,0-24.7-15.314-24.7-30.627-24.7-30.627,4.939,5.1,14.817,0,14.817,0C-4.463,65.626,10.354,40.1,10.354,40.1,15.293,65.626,79.5,75.835,79.5,75.835l0.817-.422a62.5,62.5,0,0,1-.817-9.787C79.5,47.3,93.872,35,111.6,35a31.484,31.484,0,0,1,24.281,11.7l2.883-1.49L153.583,35l-9.878,20.418Z"/>
  <path id="Rounded_Rectangle_2" data-name="Rounded Rectangle 2" class="cls-2" d="M258,0H513a10,10,0,0,1,10,10V32a10,10,0,0,1-10,10H258a10,10,0,0,1-10-10V10A10,10,0,0,1,258,0ZM248,20s-2.5,7.5-8,8,12,7,12,7V21"/>
  <path id="Rounded_Rectangle_2_copy" data-name="Rounded Rectangle 2 copy" class="cls-3" d="M258,56H513a10,10,0,0,1,10,10V88a10,10,0,0,1-10,10H258a10,10,0,0,1-10-10V66A10,10,0,0,1,258,56ZM248,76s-2.5,7.5-8,8,12,7,12,7V77"/>
  <path id="Rounded_Rectangle_2_copy_2" data-name="Rounded Rectangle 2 copy 2" class="cls-4" d="M258,112H513a10,10,0,0,1,10,10v22a10,10,0,0,1-10,10H258a10,10,0,0,1-10-10V122A10,10,0,0,1,258,112Zm-10,20s-2.5,7.5-8,8,12,7,12,7V133"/>
</svg>
